<?xml version="1.0" standalone="no"?>
<!DOCTYPE svg PUBLIC "-//W3C//DTD SVG 20010904//EN"
 "http://www.w3.org/TR/2001/REC-SVG-20010904/DTD/svg10.dtd">
<svg version="1.0" xmlns="http://www.w3.org/2000/svg"
 width="612.000000pt" height="152.000000pt" viewBox="0 0 612.000000 152.000000"
 preserveAspectRatio="xMidYMid meet">

<g transform="translate(0.000000,152.000000) scale(0.100000,-0.100000)"
fill="#000000" stroke="none">
<path d="M827 986 c-178 -66 -257 -281 -148 -399 42 -46 79 -61 153 -60 100 2
103 4 116 77 7 35 12 72 12 83 0 20 0 20 -41 0 -48 -24 -81 -17 -112 24 -17
24 -18 31 -7 64 13 38 59 75 94 75 10 0 33 -9 51 -20 l33 -21 6 28 c3 15 8 53
12 84 7 64 5 66 -79 74 -32 3 -66 0 -90 -9z"/>
<path d="M4398 986 c-70 -19 -129 -67 -170 -139 l-17 -29 -10 38 c-27 99 -80
127 -253 132 l-127 4 -6 -34 c-3 -18 -19 -116 -34 -218 -15 -105 -30 -176 -34
-165 -7 22 -77 391 -77 406 0 5 -41 9 -90 9 l-91 0 -101 -210 c-56 -116 -102
-209 -103 -208 -1 2 12 96 29 211 l32 207 -76 0 -77 0 -12 -122 c-7 -68 -14
-124 -15 -126 -2 -1 -25 54 -52 123 l-49 125 -80 -2 -79 -3 -33 -215 c-18
-118 -32 -221 -33 -227 0 -9 21 -13 74 -13 87 0 81 -7 91 121 4 48 10 91 14
98 4 6 29 -41 55 -104 l49 -115 159 0 159 0 10 30 c11 29 13 30 70 30 l59 0 0
-31 0 -30 223 3 c205 3 225 5 262 25 46 24 95 74 118 118 16 30 16 30 17 5 1
-46 42 -102 94 -129 63 -32 158 -33 228 -3 59 26 122 91 142 145 19 54 20 22
2 -85 l-12 -78 78 0 c87 0 78 -9 95 95 l9 50 22 -72 23 -73 147 0 148 0 11 31
c11 29 13 30 70 27 55 -3 58 -4 61 -30 l3 -28 85 0 c46 0 84 1 84 3 0 1 -20
103 -43 227 l-43 225 -90 3 -91 3 -41 -89 c-23 -49 -65 -137 -93 -196 l-53
-108 -27 54 c-16 29 -28 55 -29 58 0 3 14 11 30 18 55 25 84 119 56 185 -24
60 -74 77 -222 77 l-121 0 -20 -127 c-19 -120 -21 -124 -22 -65 0 35 -6 73
-12 85 -24 46 -74 88 -123 102 -59 18 -85 18 -148 1z m516 -141 c9 -23 -4 -45
-31 -51 -31 -8 -34 -4 -27 34 5 25 12 32 29 32 13 0 25 -7 29 -15z m-916 -6
c42 -14 58 -55 39 -100 -17 -42 -35 -57 -77 -65 -28 -6 -32 -5 -27 12 3 10 8
42 12 69 7 53 16 95 20 95 1 0 16 -5 33 -11z m507 -22 c55 -78 -59 -193 -125
-127 -28 28 -26 81 5 119 38 44 92 48 120 8z m-963 -115 c-13 -2 -26 -2 -28 1
-2 2 6 32 19 68 l22 64 5 -65 c5 -62 4 -65 -18 -68z m1758 58 c0 -59 0 -60
-29 -60 l-28 0 21 60 c12 33 24 60 28 60 5 0 8 -27 8 -60z"/>
<path d="M1210 977 c-136 -38 -230 -163 -218 -289 6 -60 30 -95 88 -127 89
-50 235 -24 321 56 84 78 117 209 72 286 -40 68 -162 103 -263 74z m107 -163
c19 -30 10 -75 -24 -108 -57 -57 -126 -41 -131 30 -4 49 25 90 71 102 42 11
65 5 84 -24z"/>
<path d="M1550 976 c-25 -8 -54 -17 -66 -21 l-21 -6 24 -46 c13 -26 23 -57 23
-70 0 -23 1 -23 22 -9 30 22 81 20 101 -2 29 -31 21 -80 -17 -118 -38 -38 -77
-44 -114 -18 -12 8 -22 11 -22 5 0 -5 -23 -34 -51 -65 l-50 -55 33 -18 c47
-26 168 -24 229 4 60 27 113 75 147 132 36 61 39 173 6 218 -47 64 -158 95
-244 69z"/>
<path d="M1875 958 c-3 -18 -17 -107 -30 -198 -14 -91 -27 -180 -30 -197 l-6
-33 79 0 80 0 7 48 c14 98 16 100 39 26 l22 -69 194 -3 c217 -3 262 4 326 49
104 76 138 259 62 344 -41 48 -105 65 -240 65 -59 0 -108 -2 -108 -5 0 -10
-62 -410 -63 -412 -1 -1 -18 30 -38 68 l-36 69 34 20 c62 36 85 150 41 205
-35 44 -74 55 -207 55 l-120 0 -6 -32z m193 -121 c5 -23 -15 -47 -39 -47 -14
0 -19 7 -19 28 0 16 3 32 7 36 13 13 48 1 51 -17z m383 3 c17 0 49 -40 49 -61
0 -34 -29 -85 -56 -98 -58 -26 -63 -11 -43 106 9 50 15 63 26 59 8 -3 19 -6
24 -6z"/>
<path d="M2700 903 c-7 -47 -22 -151 -34 -230 l-22 -143 81 0 81 0 32 223 c18
122 33 225 32 230 0 4 -36 7 -79 7 l-79 0 -12 -87z"/>
</g>
</svg>
